<svg xmlns="http://www.w3.org/2000/svg" viewBox="0 0 161.32 109.53"><defs><style>.a{fill:#fff;stroke-width:2px;}.a,.b{stroke:#000;stroke-miterlimit:10;}.c{fill:#f7b8d4;}</style></defs><title>Asset 1</title><path class="a" d="M140.22,35.16c3.57-4.81,3.92-10.76.83-15.21-4.1-5.88-13.73-8.38-22.17-4.87A29,29,0,0,0,110,7.35C94.57-1.33,75.5,6,73.3,6.81c-6.6-5.88-16.4-7.43-23.71-4A17.32,17.32,0,0,0,40.13,14.6c-1.31-.42-10.88-3.45-19.55,1a19.43,19.43,0,0,0-9.45,23.65c-1.07.36-6.54,2.26-8.8,7.19C0,51.56,2,57.86,7.57,61.9,2.1,66.18-.22,72.6,1.62,78.37,4,85.68,12.8,90.79,22.6,89.9a20.35,20.35,0,0,0,7.13,10.34c10.58,8.2,25.61,4,26.39,3.8,3,1.19,23.12,9.15,41.42.53a37.9,37.9,0,0,0,11.83-8.74c11.77,5.71,24.55,4.58,30.79-1.55a15.45,15.45,0,0,0,4.28-10.76c.71-.18,11.89-3.27,15.1-13.25,2.2-6.83-.3-14.26-6.36-19.2,2-5.41.24-11-4.16-13.85A14.11,14.11,0,0,0,140.22,35.16Z"/><circle class="b" cx="60.46" cy="47.46" r="4.87"/><circle class="b" cx="100.87" cy="47.46" r="4.87"/><path d="M86.48,60.09c-.42,6.6-9.69,6.18-9.75-.36a1.49,1.49,0,0,0-3,0c.06,4.28,3.15,8.14,7.67,8.26s7.79-3.63,8.08-7.9c.06-1.9-2.91-1.9-3,0Z"/><circle class="c" cx="51.37" cy="64.58" r="7.37"/><circle class="c" cx="109.97" cy="64.58" r="7.37"/></svg>